<svg width="8" height="5" viewBox="0 0 8 5" fill="none" xmlns="http://www.w3.org/2000/svg">
<path d="M4.84456 0.300097L7.44456 2.9001C7.76122 3.21676 7.83206 3.57926 7.65706 3.9876C7.48206 4.39593 7.16956 4.6001 6.71956 4.6001L1.56956 4.6001C1.11956 4.6001 0.807056 4.39593 0.632056 3.9876C0.457056 3.57926 0.52789 3.21676 0.844556 2.9001L3.44456 0.300097C3.54456 0.200098 3.65289 0.125098 3.76956 0.0750976C3.88622 0.0250974 4.01122 9.77516e-05 4.14456 9.77516e-05C4.27789 9.77516e-05 4.40289 0.0250974 4.51956 0.0750976C4.63622 0.125098 4.74456 0.200098 4.84456 0.300097Z" fill="#2A3647"/>
</svg>
