<svg width="21" height="20" viewBox="0 0 21 20" fill="none" xmlns="http://www.w3.org/2000/svg">
<mask id="mask0_294678_9884" style="mask-type:alpha" maskUnits="userSpaceOnUse" x="0" y="0" width="21" height="20">
<rect x="0.5" width="20" height="20" fill="#D9D9D9"/>
</mask>
<g mask="url(#mask0_294678_9884)">
<path d="M9.66764 13.4791V4.16659C9.66764 3.93047 9.7475 3.73256 9.90723 3.57284C10.0669 3.41311 10.2649 3.33325 10.501 3.33325C10.7371 3.33325 10.935 3.41311 11.0947 3.57284C11.2544 3.73256 11.3343 3.93047 11.3343 4.16659V13.4791L15.4176 9.39575C15.5843 9.22909 15.7788 9.14922 16.001 9.15617C16.2232 9.16311 16.4176 9.24992 16.5843 9.41659C16.7371 9.58325 16.8169 9.7777 16.8239 9.99992C16.8308 10.2221 16.751 10.4166 16.5843 10.5833L11.0843 16.0833C11.001 16.1666 10.9107 16.2256 10.8135 16.2603C10.7163 16.2951 10.6121 16.3124 10.501 16.3124C10.3899 16.3124 10.2857 16.2951 10.1885 16.2603C10.0913 16.2256 10.001 16.1666 9.91764 16.0833L4.41764 10.5833C4.26487 10.4305 4.18848 10.2395 4.18848 10.0103C4.18848 9.78117 4.26487 9.58325 4.41764 9.41659C4.58431 9.24992 4.78223 9.16658 5.01139 9.16658C5.24056 9.16658 5.43848 9.24992 5.60514 9.41659L9.66764 13.4791Z" fill="white"/>
</g>
</svg>
