<svg width="21" height="18" viewBox="0 0 21 18" fill="none" xmlns="http://www.w3.org/2000/svg">
<mask id="mask0_294678_9879" style="mask-type:alpha" maskUnits="userSpaceOnUse" x="0" y="-1" width="21" height="20">
<rect x="0.5" y="-1" width="20" height="20" fill="#D9D9D9"/>
</mask>
<g mask="url(#mask0_294678_9879)">
<path d="M9.66676 5.52059L5.58342 9.60392C5.41676 9.77059 5.22231 9.85045 5.00009 9.84351C4.77787 9.83656 4.58342 9.74976 4.41676 9.58309C4.26398 9.41642 4.18412 9.22198 4.17717 8.99976C4.17023 8.77753 4.25009 8.58309 4.41676 8.41642L9.91676 2.91642C10.0001 2.83309 10.0904 2.77406 10.1876 2.73934C10.2848 2.70462 10.389 2.68726 10.5001 2.68726C10.6112 2.68726 10.7154 2.70462 10.8126 2.73934C10.9098 2.77406 11.0001 2.83309 11.0834 2.91642L16.5834 8.41642C16.7362 8.5692 16.8126 8.76017 16.8126 8.98934C16.8126 9.21851 16.7362 9.41642 16.5834 9.58309C16.4168 9.74976 16.2188 9.83309 15.9897 9.83309C15.7605 9.83309 15.5626 9.74976 15.3959 9.58309L11.3334 5.52059V14.8331C11.3334 15.0692 11.2536 15.2671 11.0938 15.4268C10.9341 15.5866 10.7362 15.6664 10.5001 15.6664C10.264 15.6664 10.0661 15.5866 9.90634 15.4268C9.74662 15.2671 9.66676 15.0692 9.66676 14.8331V5.52059Z" fill="white"/>
</g>
</svg>
