<svg xmlns="http://www.w3.org/2000/svg" style="display: none;">
  <symbol id="mail_icon" width="24" height="24" viewBox="0 0 24 24" fill="none">
    <mask id="mask0_60005_5687" style="mask-type:alpha" maskUnits="userSpaceOnUse" x="0" y="0" width="24" height="24">
      <rect width="24" height="24" fill="currentColor" />
    </mask>
    <g mask="url(#mask0_60005_5687)">
      <path
        d="M4 20C3.45 20 2.97917 19.8042 2.5875 19.4125C2.19583 19.0208 2 18.55 2 18V6C2 5.45 2.19583 4.97917 2.5875 4.5875C2.97917 4.19583 3.45 4 4 4H20C20.55 4 21.0208 4.19583 21.4125 4.5875C21.8042 4.97917 22 5.45 22 6V18C22 18.55 21.8042 19.0208 21.4125 19.4125C21.0208 19.8042 20.55 20 20 20H4ZM20 8L12.525 12.675C12.4417 12.725 12.3542 12.7625 12.2625 12.7875C12.1708 12.8125 12.0833 12.825 12 12.825C11.9167 12.825 11.8292 12.8125 11.7375 12.7875C11.6458 12.7625 11.5583 12.725 11.475 12.675L4 8V18H20V8ZM12 11L20 6H4L12 11ZM4 8.25V6.775V6.8V6.7875V8.25Z"
        fill="currentColor" />
    </g>
  </symbol>

  <symbol id="password_icon" width="24" height="24" viewBox="0 0 24 24" fill="none">
    <mask id="mask0_60009_5693" style="mask-type:alpha" maskUnits="userSpaceOnUse" x="0" y="0" width="24" height="24">
      <rect width="24" height="24" fill="currentColor" />
    </mask>
    <g mask="url(#mask0_60009_5693)">
      <path
        d="M6 22C5.45 22 4.97917 21.8042 4.5875 21.4125C4.19583 21.0208 4 20.55 4 20V10C4 9.45 4.19583 8.97917 4.5875 8.5875C4.97917 8.19583 5.45 8 6 8H7V6C7 4.61667 7.4875 3.4375 8.4625 2.4625C9.4375 1.4875 10.6167 1 12 1C13.3833 1 14.5625 1.4875 15.5375 2.4625C16.5125 3.4375 17 4.61667 17 6V8H18C18.55 8 19.0208 8.19583 19.4125 8.5875C19.8042 8.97917 20 9.45 20 10V20C20 20.55 19.8042 21.0208 19.4125 21.4125C19.0208 21.8042 18.55 22 18 22H6ZM6 20H18V10H6V20ZM12 17C12.55 17 13.0208 16.8042 13.4125 16.4125C13.8042 16.0208 14 15.55 14 15C14 14.45 13.8042 13.9792 13.4125 13.5875C13.0208 13.1958 12.55 13 12 13C11.45 13 10.9792 13.1958 10.5875 13.5875C10.1958 13.9792 10 14.45 10 15C10 15.55 10.1958 16.0208 10.5875 16.4125C10.9792 16.8042 11.45 17 12 17ZM9 8H15V6C15 5.16667 14.7083 4.45833 14.125 3.875C13.5417 3.29167 12.8333 3 12 3C11.1667 3 10.4583 3.29167 9.875 3.875C9.29167 4.45833 9 5.16667 9 6V8Z"
        fill="currentColor" />
    </g>
  </symbol>

  <symbol id="join_logo" viewBox="0 0 100 122" fill="none">
    <path d="M196.314 0H135.623V69.8251H196.314V0Z" fill="#2A3647" />
    <path
      d="M135.623 126.614H196.315V225.091C196.592 248.787 189.848 272.031 176.94 291.868C164.195 311.141 139.591 334.072 94.0723 334.072C44.4917 334.072 15.5931 310.626 0 297.777L38.2825 250.554C53.5021 262.981 68.1615 273.204 94.3057 273.204C114.101 273.204 121.99 265.138 126.612 258.104C132.896 248.334 136.146 236.908 135.95 225.279L135.623 126.614Z"
      fill="#2A3647" />
    <path d="M104.67 82.5332H43.9781V143.495H104.67V82.5332Z" fill="#29ABE2" />
    <path
      d="M228.108 305.467C228.108 318.456 221.525 325.444 212.328 325.444C203.131 325.444 197.108 317.143 197.108 306.123C197.108 295.103 203.318 286.381 212.842 286.381C222.366 286.381 228.108 294.962 228.108 305.467ZM204.158 305.983C204.158 313.814 207.286 319.582 212.655 319.582C218.024 319.582 221.058 313.486 221.058 305.514C221.058 298.526 218.257 291.961 212.655 291.961C207.053 291.961 204.158 298.292 204.158 305.983Z"
      fill="#2A3647" />
    <path d="M240.153 286.944V324.834H233.43V286.944H240.153Z" fill="#2A3647" />
    <path
      d="M247.436 324.834V286.944H254.905L262.935 302.56C265.002 306.643 266.842 310.838 268.444 315.127C268.024 310.438 267.837 305.045 267.837 299.042V286.944H274V324.834H267.044L258.92 308.89C256.77 304.702 254.853 300.397 253.178 295.994C253.178 300.684 253.505 305.983 253.505 312.501V324.787L247.436 324.834Z"
      fill="#2A3647" />
  </symbol>

  <symbol id="arrow_left" width="32" height="32" viewBox="0 0 32 32" fill="none">
    <g clip-path="url(#clip0_576_3168)">
      <path
        d="M10.4373 14.6667H25.3333C26.0696 14.6667 26.6666 15.2637 26.6666 16.0001C26.6666 16.7364 26.0696 17.3334 25.3333 17.3334H10.4373L16.6466 23.5427C17.1672 24.0634 17.1672 24.9074 16.6466 25.4281C16.126 25.9487 15.2819 25.9487 14.7613 25.4281L6.74746 17.4143C5.96642 16.6332 5.96642 15.3669 6.74747 14.5858L14.7613 6.57206C15.2819 6.05144 16.126 6.05144 16.6466 6.57206C17.1672 7.09268 17.1672 7.93677 16.6466 8.45739L10.4373 14.6667Z"
        fill="currentColor" />
    </g>
    <defs>
      <clipPath id="clip0_576_3168">
        <rect width="32" height="32" fill="white" />
      </clipPath>
    </defs>
  </symbol>

  <symbol id="person_icon" width="24" height="24" viewBox="0 0 24 24" fill="none">
    <mask id="mask0_309515_6257" style="mask-type:alpha" maskUnits="userSpaceOnUse" x="0" y="0" width="24" height="24">
      <rect width="24" height="24" fill="currentColor" />
    </mask>
    <g mask="url(#mask0_309515_6257)">
      <path
        d="M12 12C10.9 12 9.95833 11.6083 9.175 10.825C8.39167 10.0417 8 9.1 8 8C8 6.9 8.39167 5.95833 9.175 5.175C9.95833 4.39167 10.9 4 12 4C13.1 4 14.0417 4.39167 14.825 5.175C15.6083 5.95833 16 6.9 16 8C16 9.1 15.6083 10.0417 14.825 10.825C14.0417 11.6083 13.1 12 12 12ZM18 20H6C5.45 20 4.97917 19.8042 4.5875 19.4125C4.19583 19.0208 4 18.55 4 18V17.2C4 16.6333 4.14583 16.1125 4.4375 15.6375C4.72917 15.1625 5.11667 14.8 5.6 14.55C6.63333 14.0333 7.68333 13.6458 8.75 13.3875C9.81667 13.1292 10.9 13 12 13C13.1 13 14.1833 13.1292 15.25 13.3875C16.3167 13.6458 17.3667 14.0333 18.4 14.55C18.8833 14.8 19.2708 15.1625 19.5625 15.6375C19.8542 16.1125 20 16.6333 20 17.2V18C20 18.55 19.8042 19.0208 19.4125 19.4125C19.0208 19.8042 18.55 20 18 20ZM6 18H18V17.2C18 17.0167 17.9542 16.85 17.8625 16.7C17.7708 16.55 17.65 16.4333 17.5 16.35C16.6 15.9 15.6917 15.5625 14.775 15.3375C13.8583 15.1125 12.9333 15 12 15C11.0667 15 10.1417 15.1125 9.225 15.3375C8.30833 15.5625 7.4 15.9 6.5 16.35C6.35 16.4333 6.22917 16.55 6.1375 16.7C6.04583 16.85 6 17.0167 6 17.2V18ZM12 10C12.55 10 13.0208 9.80417 13.4125 9.4125C13.8042 9.02083 14 8.55 14 8C14 7.45 13.8042 6.97917 13.4125 6.5875C13.0208 6.19583 12.55 6 12 6C11.45 6 10.9792 6.19583 10.5875 6.5875C10.1958 6.97917 10 7.45 10 8C10 8.55 10.1958 9.02083 10.5875 9.4125C10.9792 9.80417 11.45 10 12 10Z"
        fill="currentColor" />
    </g>
  </symbol>

  <symbol id="check_box" width="24" height="24" viewBox="0 0 24 24" fill="none">
    <rect x="4.5" y="4" width="16" height="16" rx="3" stroke="currentColor" stroke-width="2" />
  </symbol>

  <symbol id="check_box_checked" width="24" height="24" viewBox="0 0 24 24" fill="none">
    <path
      d="M20 11.9658V17.9658C20 19.6227 18.6569 20.9658 17 20.9658H7C5.34315 20.9658 4 19.6227 4 17.9658V7.96582C4 6.30897 5.34315 4.96582 7 4.96582H15"
      stroke="currentColor" stroke-width="2" stroke-linecap="round" />
    <path d="M8 12.9658L12 16.9658L20 5.46582" stroke="currentColor" stroke-width="2" stroke-linecap="round"
      stroke-linejoin="round" />
  </symbol>

  <symbol id="summary_icon" viewBox="0 0 26 26" fill="none">
    <path
      d="M23.2273 0.48291H2.77273H2.5C1.39543 0.48291 0.5 1.37864 0.5 2.48321C0.5 2.663 0.5 2.79037 0.5 2.82288V23.2774V23.4829C0.5 24.5875 1.39572 25.4829 2.50029 25.4829C2.64377 25.4829 2.74401 25.4829 2.77272 25.4829H23.2273C23.256 25.4829 23.3562 25.4829 23.4997 25.4829C24.6043 25.4829 25.5 24.587 25.5 23.4824C25.5 23.3756 25.5 23.3017 25.5 23.2774V2.82285C25.5 2.79035 25.5 2.66299 25.5 2.48321C25.5 1.37864 24.6043 0.48291 23.4997 0.48291C23.3562 0.48291 23.256 0.48291 23.2273 0.48291ZM15.2727 23.2774H2.77273V14.1865H15.2727V23.2774ZM15.2727 11.9138H2.77273V2.82288L15.2727 2.82285V11.9138ZM23.2273 23.2774H17.5455V2.82288H23.2273V23.2774Z"
      fill="currentColor" />
  </symbol>

  <symbol id="add_task_icon" viewBox="0 0 26 26" fill="none">
    <path
      d="M2.62652 25.1853C1.95579 25.1853 1.38161 24.9465 0.903963 24.4688C0.426321 23.9912 0.1875 23.417 0.1875 22.7462V5.67308C0.1875 5.00235 0.426321 4.42816 0.903963 3.95052C1.38161 3.47287 1.95579 3.23405 2.62652 3.23405H13.5107L11.0716 5.67308H2.62652V22.7462H19.6997V14.2706L22.1387 11.8316V22.7462C22.1387 23.417 21.8999 23.9912 21.4223 24.4688C20.9446 24.9465 20.3704 25.1853 19.6997 25.1853H2.62652ZM16.2546 3.93527L17.9924 5.64259L9.9436 13.6914V15.4292H11.6509L19.7302 7.34991L21.468 9.05722L13.3887 17.1365C13.1651 17.3601 12.906 17.5379 12.6113 17.67C12.3166 17.8021 12.0066 17.8682 11.6814 17.8682H8.72409C8.37856 17.8682 8.08892 17.7513 7.85518 17.5176C7.62144 17.2839 7.50457 16.9942 7.50457 16.6487V13.6914C7.50457 13.3662 7.56555 13.0562 7.6875 12.7615C7.80945 12.4668 7.98222 12.2076 8.20579 11.9841L16.2546 3.93527ZM21.468 9.05722L16.2546 3.93527L19.3034 0.886492C19.7912 0.398688 20.3755 0.154785 21.0564 0.154785C21.7373 0.154785 22.3115 0.398688 22.779 0.886492L24.4863 2.6243C24.9538 3.09178 25.1875 3.66088 25.1875 4.33161C25.1875 5.00235 24.9538 5.57145 24.4863 6.03893L21.468 9.05722Z"
      fill="currentColor" />
  </symbol>

  <symbol id="board_icon" viewBox="0 0 30 26" fill="none">
    <path
      d="M22.9544 2.75564L22.9545 23.21C22.9538 23.8125 22.7142 24.3903 22.2881 24.8163C21.862 25.2424 21.2843 25.4821 20.6817 25.4827L16.1363 25.4827C15.5338 25.4821 14.956 25.2424 14.53 24.8163C14.1039 24.3903 13.8642 23.8125 13.8636 23.21L13.8636 2.75564C13.8642 2.15306 14.1039 1.57534 14.53 1.14926C14.956 0.723172 15.5338 0.483533 16.1363 0.48293L20.6817 0.48293C21.2843 0.483533 21.862 0.723172 22.2881 1.14926C22.7142 1.57534 22.9538 2.15306 22.9544 2.75564ZM16.1363 23.21L20.6817 23.21L20.6817 2.75564L16.1363 2.75564L16.1363 23.21ZM16.1363 2.75564L16.1363 23.21C16.1357 23.8125 15.8961 24.3902 15.47 24.8163C15.0439 25.2424 14.4662 25.482 13.8636 25.4826L9.31823 25.4826C8.71566 25.482 8.13794 25.2424 7.71185 24.8163C7.28577 24.3902 7.04613 23.8125 7.04553 23.2099L7.04553 2.75561C7.04613 2.15304 7.28577 1.57532 7.71185 1.14923C8.13793 0.723148 8.71566 0.483513 9.31823 0.48291L13.8636 0.48291C14.4662 0.483512 15.0439 0.723148 15.47 1.14923C15.8961 1.57532 16.1357 2.15306 16.1363 2.75564ZM9.31823 23.2099L13.8636 23.21L13.8636 2.75564L9.31823 2.75561L9.31823 23.2099ZM9.31823 2.75561L9.31823 23.2099C9.31763 23.8125 9.07799 24.3902 8.65191 24.8163C8.22582 25.2424 7.6481 25.482 7.04553 25.4826L2.50012 25.4826C1.89755 25.482 1.31983 25.2424 0.893741 24.8163C0.467657 24.3902 0.228019 23.8125 0.227417 23.2099L0.227416 2.75561C0.228018 2.15304 0.467656 1.57532 0.89374 1.14923C1.31982 0.723148 1.89755 0.483513 2.50012 0.48291L7.04553 0.48291C7.6481 0.483513 8.22582 0.723148 8.6519 1.14923C9.07799 1.57532 9.31763 2.15304 9.31823 2.75561ZM2.50012 23.2099L7.04553 23.2099L7.04553 2.75561L2.50012 2.75561L2.50012 23.2099Z"
      fill="currentColor" />
    <path
      d="M29.7726 2.75589L29.7726 23.2102C29.772 23.8128 29.5323 24.3905 29.1062 24.8166C28.6802 25.2427 28.1024 25.4823 27.4999 25.4829L22.9545 25.4829C22.3519 25.4823 21.7742 25.2427 21.3481 24.8166C20.922 24.3905 20.6824 23.8125 20.6817 23.21L20.6817 2.75564C20.6823 2.15306 20.922 1.57559 21.3481 1.14951C21.7742 0.723424 22.3519 0.483787 22.9544 0.483184L27.4999 0.483184C28.1024 0.483786 28.6801 0.723424 29.1062 1.14951C29.5323 1.57559 29.772 2.15331 29.7726 2.75589ZM22.9545 23.21L27.4999 23.2102L27.4999 2.75589L22.9544 2.75564L22.9545 23.21Z"
      fill="currentColor" />
  </symbol>

  <symbol id="contacts_icon" viewBox="0 0 24 26" fill="none">
    <path
      d="M12 20.4829C10.8333 20.4829 9.71875 20.6652 8.65625 21.0298C7.59375 21.3944 6.625 21.9412 5.75 22.6704V22.9829H18.25V22.6704C17.375 21.9412 16.4062 21.3944 15.3438 21.0298C14.2812 20.6652 13.1667 20.4829 12 20.4829ZM3.25 21.5454C4.375 20.4412 5.68229 19.5715 7.17188 18.936C8.66146 18.3006 10.2708 17.9829 12 17.9829C13.7292 17.9829 15.3385 18.3006 16.8281 18.936C18.3177 19.5715 19.625 20.4412 20.75 21.5454V5.48291H3.25V21.5454ZM12 15.4829C10.7917 15.4829 9.76042 15.0558 8.90625 14.2017C8.05208 13.3475 7.625 12.3162 7.625 11.1079C7.625 9.89958 8.05208 8.86833 8.90625 8.01416C9.76042 7.15999 10.7917 6.73291 12 6.73291C13.2083 6.73291 14.2396 7.15999 15.0938 8.01416C15.9479 8.86833 16.375 9.89958 16.375 11.1079C16.375 12.3162 15.9479 13.3475 15.0938 14.2017C14.2396 15.0558 13.2083 15.4829 12 15.4829ZM12 12.9829C12.5208 12.9829 12.9635 12.8006 13.3281 12.436C13.6927 12.0715 13.875 11.6287 13.875 11.1079C13.875 10.5871 13.6927 10.1444 13.3281 9.77979C12.9635 9.4152 12.5208 9.23291 12 9.23291C11.4792 9.23291 11.0365 9.4152 10.6719 9.77979C10.3073 10.1444 10.125 10.5871 10.125 11.1079C10.125 11.6287 10.3073 12.0715 10.6719 12.436C11.0365 12.8006 11.4792 12.9829 12 12.9829ZM3.25 25.4829C2.5625 25.4829 1.97396 25.2381 1.48438 24.7485C0.994792 24.259 0.75 23.6704 0.75 22.9829V5.48291C0.75 4.79541 0.994792 4.20687 1.48438 3.71729C1.97396 3.2277 2.5625 2.98291 3.25 2.98291H4.5V0.48291H7V2.98291H17V0.48291H19.5V2.98291H20.75C21.4375 2.98291 22.026 3.2277 22.5156 3.71729C23.0052 4.20687 23.25 4.79541 23.25 5.48291V22.9829C23.25 23.6704 23.0052 24.259 22.5156 24.7485C22.026 25.2381 21.4375 25.4829 20.75 25.4829H3.25Z"
      fill="currentColor" />
  </symbol>

  <symbol id="login_icon" viewBox="0 0 20 20" fill="none">
    <path
      d="M11.0833 19.7499C10.7764 19.7499 10.5191 19.6461 10.3115 19.4385C10.1038 19.2308 10 18.9736 10 18.6666C10 18.3597 10.1038 18.1024 10.3115 17.8947C10.5191 17.6871 10.7764 17.5833 11.0833 17.5833H17.5833V2.41661H11.0833C10.7764 2.41661 10.5191 2.31279 10.3115 2.10515C10.1038 1.89751 10 1.64022 10 1.33327C10 1.02633 10.1038 0.769036 10.3115 0.561397C10.5191 0.353758 10.7764 0.249939 11.0833 0.249939H17.5833C18.1792 0.249939 18.6892 0.462092 19.1135 0.886397C19.5378 1.3107 19.75 1.82077 19.75 2.41661V17.5833C19.75 18.1791 19.5378 18.6892 19.1135 19.1135C18.6892 19.5378 18.1792 19.7499 17.5833 19.7499H11.0833ZM9.10625 11.0833H1.33333C1.02639 11.0833 0.769097 10.9795 0.561458 10.7718C0.353819 10.5642 0.25 10.3069 0.25 9.99994C0.25 9.693 0.353819 9.4357 0.561458 9.22806C0.769097 9.02043 1.02639 8.91661 1.33333 8.91661H9.10625L7.075 6.88536C6.87639 6.68674 6.77708 6.443 6.77708 6.15411C6.77708 5.86522 6.87639 5.61244 7.075 5.39577C7.27361 5.17911 7.52639 5.06626 7.83333 5.05723C8.14028 5.0482 8.40208 5.15202 8.61875 5.36869L12.4917 9.24161C12.7083 9.45827 12.8167 9.71105 12.8167 9.99994C12.8167 10.2888 12.7083 10.5416 12.4917 10.7583L8.61875 14.6312C8.40208 14.8479 8.14479 14.9517 7.84688 14.9426C7.54896 14.9336 7.29167 14.8208 7.075 14.6041C6.87639 14.3874 6.7816 14.1301 6.79063 13.8322C6.79965 13.5343 6.90347 13.2861 7.10208 13.0874L9.10625 11.0833Z"
      fill="currentColor" />
  </symbol>

</svg>