<svg xmlns="http://www.w3.org/2000/svg" style="display: none;">

  <symbol id="telegram" viewBox="0 0 24 25" fill="none">
    <path
      d="M21.6 12.5C21.6 15.0461 20.5886 17.4879 18.7882 19.2882C16.9879 21.0886 14.5461 22.1 12 22.1C9.45392 22.1 7.01212 21.0886 5.21178 19.2882C3.41143 17.4879 2.4 15.0461 2.4 12.5C2.4 9.95392 3.41143 7.51212 5.21178 5.71178C7.01212 3.91143 9.45392 2.9 12 2.9C14.5461 2.9 16.9879 3.91143 18.7882 5.71178C20.5886 7.51212 21.6 9.95392 21.6 12.5ZM12 24.5C18.6276 24.5 24 19.1276 24 12.5C24 5.8724 18.6276 0.5 12 0.5C5.3724 0.5 0 5.8724 0 12.5C0 19.1276 5.3724 24.5 12 24.5ZM12.4296 9.3584C11.2632 9.844 8.9308 10.8492 5.4324 12.374C4.8636 12.5996 4.566 12.8204 4.5396 13.0364C4.494 13.4012 4.9512 13.5452 5.574 13.7408L5.8356 13.8248C6.4476 14.024 7.2732 14.2568 7.7016 14.2664C8.0904 14.2744 8.524 14.1144 9.0024 13.7864C12.2712 11.5784 13.9584 10.4628 14.064 10.4396C14.1396 10.4228 14.2428 10.4012 14.3124 10.4636C14.3832 10.526 14.376 10.6436 14.3688 10.676C14.3232 10.8692 12.528 12.5384 11.5992 13.4012C11.324 13.6604 11.0508 13.9216 10.7796 14.1848C10.2108 14.7332 9.7836 15.1448 10.8036 15.8168C11.8368 16.4984 12.8796 17.1776 13.8876 17.8964C14.3844 18.2516 14.8308 18.5684 15.3828 18.5192C15.7032 18.4892 16.0344 18.188 16.2024 17.288C16.6008 15.164 17.382 10.5584 17.562 8.66C17.5725 8.50253 17.5656 8.34438 17.5416 8.1884C17.5274 8.06286 17.4666 7.94723 17.3712 7.8644C17.2272 7.7468 17.0052 7.7228 16.9068 7.724C16.4556 7.7324 15.7632 7.9724 12.4308 9.3584"
      fill="currentColor" />
  </symbol>

  <symbol id="whatsapp" viewBox="0 0 24 25" fill="none">
    <path
      d="M20.5025 3.99206C19.3967 2.88099 18.0796 2.00002 16.6282 1.4005C15.1767 0.800974 13.6198 0.494884 12.0482 0.500065C5.46332 0.500065 0.0964826 5.84005 0.0964826 12.392C0.0964826 14.492 0.651256 16.532 1.68844 18.332L0 24.5L6.33166 22.844C8.0804 23.792 10.0462 24.296 12.0482 24.296C18.6332 24.296 24 18.956 24 12.404C24 9.22404 22.7578 6.23605 20.5025 3.99206ZM12.0482 22.28C10.2633 22.28 8.51457 21.8 6.98291 20.9L6.6211 20.684L2.85829 21.668L3.8593 18.02L3.61809 17.648C2.62619 16.0725 2.09961 14.2512 2.09849 12.392C2.09849 6.94405 6.5608 2.50406 12.0362 2.50406C14.6894 2.50406 17.1859 3.53606 19.0553 5.40805C19.981 6.32469 20.7147 7.4151 21.2136 8.61604C21.7126 9.81698 21.9669 11.1045 21.9618 12.404C21.9859 17.852 17.5236 22.28 12.0482 22.28ZM17.4995 14.888C17.198 14.744 15.7266 14.024 15.4613 13.916C15.1839 13.82 14.991 13.772 14.7859 14.06C14.5809 14.36 14.0141 15.032 13.8452 15.224C13.6764 15.428 13.4955 15.452 13.194 15.296C12.8925 15.152 11.9276 14.828 10.794 13.82C9.90151 13.028 9.31055 12.056 9.12965 11.756C8.9608 11.456 9.10553 11.3 9.26231 11.144C9.39497 11.012 9.56382 10.796 9.70854 10.628C9.85327 10.46 9.91357 10.328 10.01 10.136C10.1065 9.93204 10.0583 9.76404 9.98593 9.62004C9.91357 9.47604 9.31055 8.01204 9.06935 7.41205C8.82814 6.83605 8.57487 6.90805 8.39397 6.89605H7.81507C7.61005 6.89605 7.29648 6.96805 7.01909 7.26805C6.75377 7.56805 5.98191 8.28804 5.98191 9.75204C5.98191 11.216 7.05528 12.632 7.2 12.824C7.34472 13.028 9.31055 16.028 12.3015 17.312C13.0131 17.624 13.5678 17.804 14.002 17.936C14.7136 18.164 15.3648 18.128 15.8834 18.056C16.4623 17.972 17.6563 17.336 17.8975 16.64C18.1508 15.944 18.1508 15.356 18.0663 15.224C17.9819 15.092 17.801 15.032 17.4995 14.888Z"
      fill="currentColor" />
  </symbol>

  <symbol id="instagram" viewBox="0 0 25 25" fill="none">
    <path
      d="M12.5012 9.37499C11.6724 9.37499 10.8775 9.70423 10.2915 10.2903C9.70544 10.8763 9.3762 11.6712 9.3762 12.5C9.3762 13.3288 9.70544 14.1237 10.2915 14.7097C10.8775 15.2958 11.6724 15.625 12.5012 15.625C13.33 15.625 14.1249 15.2958 14.7109 14.7097C15.297 14.1237 15.6262 13.3288 15.6262 12.5C15.6262 11.6712 15.297 10.8763 14.7109 10.2903C14.1249 9.70423 13.33 9.37499 12.5012 9.37499ZM12.5012 7.29166C13.8825 7.29166 15.2073 7.84039 16.1841 8.81715C17.1608 9.7939 17.7095 11.1187 17.7095 12.5C17.7095 13.8813 17.1608 15.2061 16.1841 16.1828C15.2073 17.1596 13.8825 17.7083 12.5012 17.7083C11.1199 17.7083 9.79511 17.1596 8.81836 16.1828C7.8416 15.2061 7.29287 13.8813 7.29287 12.5C7.29287 11.1187 7.8416 9.7939 8.81836 8.81715C9.79511 7.84039 11.1199 7.29166 12.5012 7.29166ZM19.272 7.03124C19.272 7.37658 19.1349 7.70777 18.8907 7.95196C18.6465 8.19614 18.3153 8.33333 17.97 8.33333C17.6246 8.33333 17.2934 8.19614 17.0492 7.95196C16.8051 7.70777 16.6679 7.37658 16.6679 7.03124C16.6679 6.68591 16.8051 6.35472 17.0492 6.11053C17.2934 5.86634 17.6246 5.72916 17.97 5.72916C18.3153 5.72916 18.6465 5.86634 18.8907 6.11053C19.1349 6.35472 19.272 6.68591 19.272 7.03124ZM12.5012 4.16666C9.92412 4.16666 9.50329 4.17395 8.30433 4.22708C7.48766 4.26562 6.93975 4.37499 6.43141 4.57291C6.00624 4.72955 5.62175 4.97982 5.30641 5.3052C4.98066 5.62043 4.73002 6.00493 4.57308 6.4302C4.37516 6.94062 4.26579 7.48749 4.22829 8.30312C4.17412 9.45312 4.16683 9.8552 4.16683 12.5C4.16683 15.0781 4.17412 15.4979 4.22725 16.6969C4.26579 17.5125 4.37516 18.0615 4.57204 18.5687C4.74912 19.0219 4.95745 19.3479 5.30329 19.6937C5.65433 20.0437 5.98037 20.2531 6.42829 20.426C6.94287 20.625 7.49079 20.7354 8.30329 20.7729C9.45329 20.8271 9.85537 20.8333 12.5002 20.8333C15.0783 20.8333 15.4981 20.826 16.697 20.7729C17.5116 20.7344 18.0595 20.625 18.5689 20.4281C18.9941 20.2715 19.3786 20.0212 19.6939 19.6958C20.045 19.3458 20.2543 19.0198 20.4272 18.5708C20.6252 18.0583 20.7356 17.5104 20.7731 16.6958C20.8272 15.5469 20.8335 15.1437 20.8335 12.5C20.8335 9.92291 20.8262 9.50208 20.7731 8.30312C20.7345 7.48854 20.6241 6.93854 20.4272 6.4302C20.2706 6.00503 20.0203 5.62054 19.695 5.3052C19.3797 4.97945 18.9952 4.72881 18.57 4.57187C18.0595 4.37395 17.5116 4.26458 16.697 4.22708C15.5481 4.17291 15.146 4.16666 12.5002 4.16666M12.5002 2.08333C15.3304 2.08333 15.6835 2.09374 16.795 2.14583C17.9033 2.19791 18.6595 2.37187 19.3231 2.6302C20.0106 2.89479 20.5897 3.25312 21.1689 3.83124C21.6988 4.3518 22.1087 4.98174 22.37 5.67708C22.6272 6.34062 22.8022 7.09687 22.8543 8.20624C22.9033 9.31666 22.9168 9.66979 22.9168 12.5C22.9168 15.3302 22.9064 15.6833 22.8543 16.7937C22.8022 17.9042 22.6272 18.6583 22.37 19.3229C22.1087 20.0183 21.6988 20.6482 21.1689 21.1687C20.6484 21.6986 20.0184 22.1085 19.3231 22.3698C18.6595 22.6271 17.9033 22.8021 16.795 22.8542C15.6835 22.9031 15.3304 22.9167 12.5002 22.9167C9.66995 22.9167 9.31683 22.9062 8.20537 22.8542C7.09704 22.8021 6.34183 22.6271 5.67725 22.3698C4.9819 22.1085 4.35197 21.6986 3.83141 21.1687C3.30152 20.6482 2.89164 20.0183 2.63037 19.3229C2.37204 18.6594 2.19808 17.9031 2.146 16.7937C2.096 15.6833 2.0835 15.3302 2.0835 12.5C2.0835 9.66979 2.09391 9.31666 2.146 8.20624C2.19808 7.09583 2.37204 6.34166 2.63037 5.67708C2.89164 4.98174 3.30152 4.3518 3.83141 3.83124C4.35197 3.30136 4.9819 2.89147 5.67725 2.6302C6.34079 2.37187 7.096 2.19791 8.20537 2.14583C9.31787 2.09687 9.671 2.08333 12.5012 2.08333"
      fill="currentColor" />
  </symbol>

  <symbol id="logo" viewBox="0 0 150 98" fill="none">
    <path
      d="M31.4451 55.3037C31.6875 56.3694 31.5 57.6679 30.8959 58.425C30.2917 59.182 29.2822 59.2286 28.7443 58.4225C28.2159 57.6263 28.3618 56.1465 29.055 55.6222C29.0663 55.6148 29.0853 55.5438 29.0853 55.5438C28.0474 54.8823 26.8902 55.9676 26.5284 57.3984C26.1837 58.7631 26.4621 60.2919 27.0209 61.4164C29.0644 65.5177 34.0114 64.3613 35.8921 60.3237C37.8087 56.2077 36.339 51.0701 33.2538 48.892C30.6989 47.0913 27.5379 46.9418 24.7178 47.3853C20.6894 48.0198 16.1648 50.0264 12.1023 52.3784C12.7784 48.8504 14.4754 39.7658 14.7709 37.8376C15.0985 39.7266 16.4508 46.7189 16.8049 48.4633C19.0474 47.4637 20.9527 46.834 22.5152 46.4396L19.0682 30.1128C16.25 32.749 12.7557 32.8298 10.0341 33.1434V33.4105C10.0341 33.4105 11.1781 33.533 11.8561 34.6967C12.4394 35.6988 12.3447 37.0267 12.1553 38.1439L9.02654 54.4584C7.96972 55.2155 6.99813 55.7765 5.76896 55.828C4.27654 55.8917 3.87502 53.7259 4.77275 52.741C5.39207 52.0623 6.41669 52.175 7.07199 53.1452C7.64586 51.5478 5.38071 48.9557 3.34472 49.8843C1.30874 50.8128 0.369341 54.3874 1.05495 56.5532C1.68752 58.5524 3.1004 60.1008 5.39775 59.9048C6.13639 59.8411 7.34283 59.2923 8.2576 58.4666L7.42427 62.8105C6.81252 66.0004 5.72161 67.9408 4.89396 68.6758C4.06631 69.4132 3.32199 69.7758 3.32199 69.7758V70.3712H12.3788V69.8077C10.0076 68.8399 9.50002 65.9465 10.1951 62.3131C10.2576 61.9897 10.769 59.2972 11.3656 56.1881C11.8485 55.9162 12.5057 55.6075 12.5057 55.6075C13.6724 55.0587 14.9546 54.5099 16.2784 53.9611C19.0682 52.8439 21.9053 52.0231 24.7216 51.6213C26.9716 51.3004 30.6705 51.9227 31.4413 55.3061H31.4451V55.3037Z"
      fill="currentColor" />
    <path
      d="M44.6666 55.3358V55.2403C44.6666 55.1374 44.6609 55.0369 44.659 54.934V54.9022C44.6439 54.444 44.6155 53.981 44.5738 53.5106C44.5643 53.3979 44.553 53.2901 44.5416 53.1798C44.1136 48.9903 42.7329 45.7465 41.7727 44.3623C40.284 42.2234 38.4905 41.0744 35.5814 41.1356C32.8352 41.1944 27.678 41.1552 26.5624 41.1405V41.4076C26.5624 41.4076 28.945 42.2357 28.9924 44.5656C28.9961 44.8008 29.0018 45.2614 29.0056 45.8911C30.8162 46.1165 32.4147 46.7143 33.7745 47.6722C33.9999 47.8315 34.2177 48.0054 34.428 48.1892V43.7645C34.428 42.9682 35.0037 42.2969 35.8882 42.9192C37.6022 44.7224 39.4374 48.4636 39.5567 55.304C39.5567 55.4534 39.5605 55.6004 39.5605 55.7474C39.5605 55.8944 39.5605 56.0414 39.5567 56.1909C39.4393 63.0313 37.6022 66.7724 35.8882 68.5756C35.0037 69.1979 34.428 68.5291 34.428 67.7304V64.0578C33.3465 64.8859 32.0946 65.3588 30.8238 65.3588C30.1855 65.3588 29.5757 65.2338 29.0075 65.0011C29.0037 65.7777 28.998 66.3412 28.9942 66.6132C28.981 67.331 28.8465 67.9509 28.5189 68.4899C26.4014 66.5813 26.1079 63.1832 25.2083 59.1456L23.9412 53.1406C22.0549 53.4714 20.0965 54.003 18.0908 54.7209C18.6552 57.4918 19.1192 59.7728 19.1192 59.7728C19.2954 60.6425 19.4677 61.4902 19.6344 62.3036C20.3711 65.9247 19.8219 68.8329 17.4507 69.8006V70.3641C17.4507 70.3641 34.2878 70.3347 35.5852 70.3641C38.4961 70.4254 40.2878 69.2763 41.7764 67.1375C42.7386 65.7532 44.1174 62.5094 44.5454 58.3199C44.5567 58.2097 44.5662 58.0994 44.5776 57.9916C44.6192 57.5188 44.6477 57.0557 44.6628 56.5976V56.5657C44.6666 56.4628 44.6685 56.3599 44.6704 56.2595V56.1639C44.6704 56.0831 44.6704 55.9998 44.6742 55.9189V55.5808C44.6742 55.5 44.6742 55.4191 44.6704 55.3358H44.6666Z"
      fill="currentColor" />
    <path
      d="M98.2216 37.3549C87.6913 28.8975 82.1932 41.1328 88.8674 43.7372C87.3977 41.2823 90.0739 35.8335 96.2633 40.2925V59.7479C96.2841 64.4764 94.3977 64.2657 94.1705 64.2804V64.5499C97.7633 65.8901 100.809 67.9848 103.739 70.1457V69.766C103.119 69.2148 101.559 67.8403 101.646 64.2535V43.7837C106.11 45.5428 111 44.7466 111.316 38.4133C107.841 44.2394 102.326 40.6502 98.2235 37.3549H98.2216Z"
      fill="currentColor" />
    <path
      d="M136.483 71.1899C136.358 70.9302 136.239 70.6631 136.129 70.3936C135.905 69.8595 135.714 69.3279 135.566 68.8036C135.186 67.5663 134.911 66.3462 134.667 65.4201C133.261 60.1159 131.328 57.9942 129.686 57.1465C131.013 56.7937 134.203 55.3163 134.203 49.2648C134.203 41.6208 129.057 41.17 127.267 41.17L114.523 41.1357V41.4028C115.265 41.66 116.292 42.5322 116.292 44.1982C116.292 46.168 116.305 60.0252 116.305 60.0252C116.305 65.3197 115.422 67.2674 112.549 67.2674C108.936 67.2674 109.135 62.5046 109.135 59.9125V44.9308C108.142 45.5506 106.939 45.8814 105.563 45.8814C105.053 45.8814 104.529 45.8348 103.994 45.7491C104.004 50.725 104.006 60.6745 104.006 60.6818C104.006 62.5708 103.93 64.4989 104.413 66.307C104.767 67.6325 105.383 68.757 106.381 69.6023L106.466 69.6782C109.08 72.0425 114.032 71.4839 115.019 70.8616C115.148 70.8077 115.26 70.7464 115.366 70.6852C115.447 70.6411 115.523 70.597 115.591 70.5504C116.691 69.7983 117.504 68.561 117.953 67.0665C118.449 65.4177 118.508 61.4438 118.506 59.6945C118.506 59.6945 118.508 45.6756 118.511 44.1982C118.511 43.4706 118.818 42.8287 119.218 42.3387H119.235C120.379 42.6792 120.498 44.894 120.498 46.5968L120.519 64.0873C120.519 65.131 120.523 66.3364 120.527 67.4144L120.523 67.3924C120.493 71.3393 120.627 75.6562 118.909 77.3271C118.496 77.7289 117.894 78.116 117.159 77.8931C115.082 77.261 115.042 73.6619 116.945 72.8412C113.479 71.4275 111.332 75.0731 112.689 77.7461C112.229 77.5574 111.75 77.3418 111.246 77.0846C105 73.4218 97.68 65.4177 89.1024 64.8003C82.9262 64.3544 77.0721 68.1347 77.8618 75.7885C78.6062 83.0699 88.2482 83.2341 86.1743 74.3896C86.144 77.3222 82.0531 78.0989 82.4073 73.782C82.8637 68.2033 92.3789 68.6394 95.9471 70.9032C89.4565 72.1429 93.8883 83.5697 98.4205 77.8661C94.0872 76.5407 97.4812 70.9792 102.186 73.5933C106.475 75.9772 108.224 77.1997 110.754 78.7996C113.748 80.6934 125.722 85.5273 125.722 69.3989V69.3573L125.714 58.1951C126.032 58.173 126.661 58.3494 127.474 59.6945C127.487 59.7165 127.5 59.741 127.513 59.7655C128.082 60.9587 128.392 62.4458 128.731 63.7223C128.974 64.6386 129.225 65.55 129.481 66.4589C129.493 66.503 129.502 66.5496 129.513 66.5912C129.525 66.6378 129.546 66.6843 129.559 66.7333C129.701 67.2356 129.841 67.7354 129.987 68.2352C130.354 69.4896 132.379 77.1189 139.739 75.9919C140.945 75.8081 142.871 74.7228 143.576 73.2209C142.54 73.8922 141.278 74.2034 140.254 74.2034C138.489 74.2034 137.316 72.8828 136.493 71.1923H136.483V71.1899ZM129.451 50.1272C129.451 56.093 126.741 56.5952 126.188 56.1787C125.769 55.8651 125.707 55.0395 125.707 54.0276V45.2444C125.707 44.2325 125.769 43.4069 126.188 43.0933C126.741 42.6768 129.451 43.1815 129.451 49.1448V50.1272Z"
      fill="currentColor" />
    <path
      d="M85.3237 27.3544C85.6078 27.4745 85.9998 27.4206 86.1096 27.0751C86.5509 25.2205 86.4922 23.0645 86.5509 20.9893C86.5509 20.7933 86.6456 20.4185 86.7384 20.5851C87.4165 22.256 88.104 23.748 88.8464 25.3013C89.2252 26.0878 89.5604 26.8424 90.2649 26.7909C90.9581 26.6709 91.5225 25.9849 91.8369 25.2597C92.6267 22.3589 92.121 18.973 90.9884 16.5524C90.5793 15.7488 90.1059 14.7002 89.3521 14.4576C89.0093 14.3988 89.0471 15.004 89.1286 15.3445C89.5396 17.5593 90.1684 19.6982 90.3274 22.0355C90.3578 22.5181 90.4828 23.1625 90.2309 23.5692C88.8786 21.4352 88.0869 18.8946 86.4543 17.0375C86.1968 16.7655 85.8805 17.0424 85.7309 17.405C84.9752 19.3772 84.6835 21.5528 84.568 23.8534C84.5055 25.0808 84.3142 26.715 85.3218 27.3593V27.3544H85.3237Z"
      fill="currentColor" />
    <path
      d="M75.2538 20.303C75.341 20.6974 75.6932 21.1115 76.0095 21.2291C78.1156 21.8342 80.8239 21.1115 82.6156 22.9245C82.8372 23.2846 82.6383 23.6693 82.3656 23.8506C80.7008 24.7375 78.9319 25.3671 76.9792 24.8428C76.716 24.7546 76.3239 24.3994 76.4508 24.0515C77.2349 22.5202 78.5588 24.0123 79.5341 24.2132C80.0209 24.3479 81.108 24.174 81.6421 23.4488C81.8107 23.0396 81.2197 22.7873 80.8239 22.6427C79.4376 22.1601 77.4887 21.5941 76.1989 22.7236C75.8315 23.0396 75.5379 24.0123 75.7879 24.7791C76.858 26.9964 78.911 27.7412 80.8239 27.359C82.1251 27.0993 83.6875 26.5137 84.0019 24.6199C84.1516 23.4218 84.0966 22.1209 83.3088 21.2732C81.4849 19.7027 78.8675 20.548 76.858 19.5018C76.7936 19.3818 76.8353 19.3401 76.9527 19.2617C79.0929 18.414 81.6118 18.7374 83.8144 18.0539C84.1307 17.9289 84.43 17.2772 84.2879 16.9661C83.9716 16.5594 83.5626 16.4932 83.1232 16.4001C80.4565 15.8219 77.4546 15.9983 75.5379 18.3773C75.2008 18.8403 75.2216 19.7076 75.2538 20.3128V20.303Z"
      fill="currentColor" />
    <path
      d="M92.6894 25.5438C92.9261 26.6414 93.339 27.8247 93.9508 28.0036C95.9015 28.4862 97.5076 27.0775 98.983 25.6638C99.2386 25.3306 98.75 24.3212 98.5758 24.2918C97.2538 24.0885 96.0246 24.8161 94.7046 24.7769C94.8314 23.9709 94.9905 23.28 95.3068 22.594C96.3845 22.3906 97.9905 22.6797 98.6364 22.0329C98.8258 21.7536 98.7481 20.8692 98.5758 20.7442C97.7557 20.3816 96.6837 20.5188 95.8617 20.5776C95.9924 20.0386 96.1307 19.4359 96.2784 18.8896C96.9697 18.9704 97.6629 18.9141 98.2917 18.8455C98.964 18.7769 99.7727 18.9263 100.242 18.2428C100.381 17.8973 99.8504 16.9614 99.5511 16.6723C99.2519 16.3808 99.1231 16.2558 98.9527 16.2264C97.7008 16.001 95.0474 16.6723 93.1932 17.0325C92.9413 17.0717 93.0038 17.3559 93.0663 17.5984C93.2235 18.5662 94.0417 18.4045 94.5758 18.7695C94.3561 19.4139 94.233 20.0974 93.9148 20.7026C93.6345 20.8251 93.1591 20.7418 93.1288 21.3077C93.1004 21.6507 93.3163 21.8761 93.2955 22.3294C93.0019 23.2873 92.4943 24.2943 92.6875 25.5413H92.6894V25.5438Z"
      fill="currentColor" />
    <path
      d="M73.2708 16.3512C72.9204 16.312 72.8011 16.9931 72.7367 17.319C72.4526 19.7371 72.3352 22.4395 72.3901 25.061C72.4128 26.0385 72.2973 27.3566 73.2405 27.5992C73.6174 27.7192 74.32 27.5992 74.375 27.2758C74.5625 24.2133 74.3087 20.7857 74.1231 17.6424C74.1041 17.319 73.7746 16.5129 73.2727 16.3512H73.2708Z"
      fill="currentColor" />
    <path
      d="M47.3978 7.68561C47.555 7.56556 47.8372 7.56556 47.8694 7.28381C47.6497 6.67866 47.0209 6.88201 46.6744 6.55861C46.8637 6.31606 47.1478 6.39691 47.3675 6.23521C53.5986 5.06901 59.735 7.53371 64.6156 12.0417C67.1971 14.4256 69.6535 17.9658 68.8031 22.2362C67.6895 26.3644 63.3259 26.999 59.9262 26.9549C59.1706 26.9426 58.5209 26.7907 57.8486 26.4698C57.8713 23.8948 57.8316 20.6976 57.7956 19.0536C59.1971 18.9483 61.9073 19.4971 63.7028 20.504C64.0494 20.7931 63.0418 21.6702 62.663 22.1186C62.4547 22.4346 63.2217 22.736 63.7331 22.6821C64.5191 22.5179 65.1819 21.7143 65.4963 20.7858C65.716 19.9013 65.3846 19.208 64.9584 18.6102C63.0399 16.513 60.3997 16.5228 57.8183 16.4444C57.7899 15.2806 57.7709 13.5436 57.5986 12.4974C57.4262 11.4562 57.0285 10.9931 56.4319 10.8314C55.9584 11.5174 55.8827 12.4068 55.8012 13.3304C55.7009 14.4574 55.6081 15.6824 55.5191 16.7163C55.5191 16.7163 54.1137 17.0691 53.2842 17.319C52.4547 17.5714 49.1971 18.9091 49.4755 21.0283C49.8448 22.9124 52.1819 25.1835 53.788 26.5114C54.3107 26.9426 54.8429 27.3224 55.4262 27.6776C55.4925 28.6552 55.6137 29.6107 56.1175 30.38C56.2804 30.5711 56.8486 30.4951 57.2842 30.38C57.8183 30.0982 57.8334 29.3608 57.8827 28.8071C58.4452 28.9345 59.1137 29.1354 60.0891 29.2922C63.9925 29.9145 68.7709 28.4861 70.913 23.4881C72.7066 18.691 69.591 14.0409 67.2539 11.4488C66.9262 11.0887 65.7653 9.87591 65.1516 9.37856C60.0418 5.26746 53.4433 2.36666 47.0209 4.74316C46.2028 5.10576 45.824 6.19601 45.699 7.16131C46.11 7.80566 46.7387 7.68561 47.3997 7.68561H47.3978ZM55.36 25.502C53.4641 24.7768 51.4584 23.4073 50.1346 21.1508C49.824 20.5212 50.985 20.1414 51.5512 19.9381C52.8012 19.4922 54.1327 19.2937 55.4869 19.2129C55.3732 21.4497 55.3486 23.934 55.36 25.502Z"
      fill="currentColor" />
    <path
      d="M71.2878 15.1041C71.8844 15.5059 72.0151 14.5994 72.3257 14.2564C74.087 15.1433 75.7878 14.0972 77.1098 12.7668C78.1495 11.6398 79.409 10.2654 78.9052 8.41315C78.6192 7.68795 78.0226 7.24205 77.426 7.24205C76.8276 6.2351 75.8844 5.91415 74.9374 6.07585C73.017 6.5193 70.909 8.01136 70.2821 10.5496C70.1249 11.559 70.3124 12.4851 70.8806 13.1711C70.8162 13.7934 70.7537 14.6607 71.2878 15.1066V15.1041ZM74.106 10.7848C75.0264 9.6357 76.2745 8.20245 77.4545 8.69245C77.5984 8.7537 77.6798 8.8272 77.7707 9.13835C77.9791 9.84395 77.267 10.9465 76.5908 11.4659C75.551 12.1911 74.4052 12.7497 73.0851 12.5512C73.2556 11.9289 73.5889 11.4267 74.106 10.7872V10.7848ZM72.1382 9.41765C72.5662 8.87865 73.176 8.36906 73.8048 8.41071C72.9204 9.25596 72.1723 10.3144 71.57 11.4757C71.2537 10.7505 71.7594 10.0228 72.1363 9.41765H72.1382Z"
      fill="currentColor" />
    <path
      d="M100.716 25.6221C99.8352 28.6037 99.0795 31.6687 98.9204 35.0129C98.9545 35.8606 99.4886 36.5858 100.057 37.0317C100.244 37.1493 100.697 37.4727 100.748 37.191C101.189 33.9692 101.818 30.8626 102.697 27.8393C103.53 27.9765 104.042 27.9496 105.151 27.3199C107.042 26.1513 108.837 23.6106 108.934 20.8299C108.96 19.3378 108.523 17.9242 107.517 17.0789C107.191 16.8192 106.856 16.9442 106.54 17.1206C104.587 18.5734 102.233 21.9348 101.691 23.4048C101.602 20.5481 103.487 18.7327 103.644 16.1136C103.648 15.4595 102.96 16.1651 102.733 16.5546C101.095 19.0561 99.3636 22.3611 100.716 25.6245V25.6221ZM107.294 19.0928C107.545 18.7817 107.704 20.3423 107.642 20.9891C107.42 22.8805 105.598 24.4853 104.682 24.816C104.375 24.9263 104.239 24.9263 103.898 24.9361C104.417 23.3901 105.816 20.7441 107.295 19.0904H107.294V19.0928Z"
      fill="currentColor" />
    <path
      d="M69.1381 68.4895C68.7101 68.2372 68.6457 67.5806 68.6457 66.7745V56.7393C68.6457 56.0974 68.729 55.8402 68.9753 55.7079C69.4298 55.4604 71.9317 56.3767 72.8105 61.3674H72.9525V47.9781H72.8105C71.9317 52.9712 69.4317 53.8851 68.9753 53.6376C68.729 53.5029 68.6457 53.2456 68.6457 52.6062V44.7368C68.6457 43.9307 68.7139 43.2864 69.1381 43.0218C69.873 42.5661 73.7366 43.1957 75.7972 50.0386H75.9393V41.1304L56.4355 41.1647V41.4562C58.2196 42.1839 58.6022 44.4942 58.0775 47.226C57.9601 47.8336 54.8578 64.1898 54.6362 65.6402C54.39 64.2167 51.1097 47.8385 50.9847 47.226C50.4317 44.5016 50.8427 42.1814 52.6268 41.4538V41.1598H40.9961V41.4513C43.2953 42.179 44.7707 45.2905 45.3181 47.7674L50.087 70.3589C52.4696 70.3515 55.8844 70.3589 55.8844 70.3589L60.3029 47.226C60.9715 44.2223 61.4355 42.9654 62.2385 42.2378C62.9014 42.8772 63.3029 43.7935 63.3313 45.386L63.3351 54.7132V56.6046L63.3313 65.9317C63.2878 68.4307 62.3256 69.2662 60.8787 69.9742V70.1898H60.8806V70.3589H76.1665V59.4074H76.0245C73.9772 66.6643 70.0984 69.053 69.1362 68.4846V68.4895H69.1381Z"
      fill="currentColor" />
    <path
      d="M78.5303 68.0632C78.5833 67.9848 78.6345 67.904 78.6894 67.828C79.6401 66.5001 80.9091 65.4393 82.3939 64.6871L82.3883 64.3441C80.5947 64.7337 80.911 60.4241 80.9129 58.7998L80.892 50.4894C80.892 50.4894 84.0151 57.6483 86.5985 63.4597C87.4261 63.369 88.2803 63.3494 89.1534 63.4107C90.5947 63.5136 91.9981 63.7855 93.3636 64.2633C93.3617 57.5944 93.3579 44.7637 93.3579 44.0557C93.3579 42.5024 93.7614 41.8605 94.6098 41.4121V41.1647L89.8939 41.1475L89.8901 41.4146C90.6326 41.6718 91.2519 42.3995 91.2519 43.8327C91.2557 45.8025 91.2595 55.725 91.2595 55.725V58.0917L83.4754 41.1304H76.4507L76.4451 41.3754C77.0454 41.5175 78.5322 41.9046 78.536 45.5232C78.5322 49.8426 78.5303 68.0608 78.5303 68.0608V68.0632Z"
      fill="currentColor" />
    <path
      d="M148.491 59.4123C146.443 66.6692 142.564 69.0579 141.602 68.4895C141.174 68.2372 141.11 67.5806 141.11 66.7745V56.7393C141.11 56.0974 141.193 55.8402 141.439 55.7079C141.894 55.4604 144.396 56.3767 145.275 61.3674H145.417V47.9781H145.275C144.396 52.9712 141.896 53.8851 141.439 53.6376C141.193 53.5029 141.11 53.2456 141.11 52.6062V44.7368C141.11 43.9307 141.178 43.2864 141.602 43.0218C142.337 42.5661 146.201 43.1957 148.261 50.0386H148.403V41.1304H133.345V41.346C134.826 42.0687 135.801 44.1806 135.801 46.8168V65.4393C135.839 65.5887 135.879 65.7431 135.919 65.9048C136.102 66.6373 136.311 67.4679 136.563 68.2862L136.574 68.3229C136.699 68.7639 136.866 69.2368 137.07 69.7268C137.163 69.9522 137.256 70.1604 137.35 70.3613H148.633V59.4098H148.491V59.4123Z"
      fill="currentColor" />
  </symbol>

  <symbol id="mail_icon" width="24" height="24" viewBox="0 0 24 24" fill="none">
    <mask id="mask0_60005_5687" style="mask-type:alpha" maskUnits="userSpaceOnUse" x="0" y="0" width="24" height="24">
      <rect width="24" height="24" fill="currentColor" />
    </mask>
    <g mask="url(#mask0_60005_5687)">
      <path
        d="M4 20C3.45 20 2.97917 19.8042 2.5875 19.4125C2.19583 19.0208 2 18.55 2 18V6C2 5.45 2.19583 4.97917 2.5875 4.5875C2.97917 4.19583 3.45 4 4 4H20C20.55 4 21.0208 4.19583 21.4125 4.5875C21.8042 4.97917 22 5.45 22 6V18C22 18.55 21.8042 19.0208 21.4125 19.4125C21.0208 19.8042 20.55 20 20 20H4ZM20 8L12.525 12.675C12.4417 12.725 12.3542 12.7625 12.2625 12.7875C12.1708 12.8125 12.0833 12.825 12 12.825C11.9167 12.825 11.8292 12.8125 11.7375 12.7875C11.6458 12.7625 11.5583 12.725 11.475 12.675L4 8V18H20V8ZM12 11L20 6H4L12 11ZM4 8.25V6.775V6.8V6.7875V8.25Z"
        fill="currentColor" />
    </g>
  </symbol>

  <symbol id="password_icon_test" width="24" height="24" viewBox="0 0 24 24" fill="none">
    <mask id="mask0_60009_5693" style="mask-type:alpha" maskUnits="userSpaceOnUse" x="0" y="0" width="24" height="24">
      <rect width="24" height="24" fill="currentColor" />
    </mask>
    <g mask="url(#mask0_60009_5693)">
      <path
        d="M6 22C5.45 22 4.97917 21.8042 4.5875 21.4125C4.19583 21.0208 4 20.55 4 20V10C4 9.45 4.19583 8.97917 4.5875 8.5875C4.97917 8.19583 5.45 8 6 8H7V6C7 4.61667 7.4875 3.4375 8.4625 2.4625C9.4375 1.4875 10.6167 1 12 1C13.3833 1 14.5625 1.4875 15.5375 2.4625C16.5125 3.4375 17 4.61667 17 6V8H18C18.55 8 19.0208 8.19583 19.4125 8.5875C19.8042 8.97917 20 9.45 20 10V20C20 20.55 19.8042 21.0208 19.4125 21.4125C19.0208 21.8042 18.55 22 18 22H6ZM6 20H18V10H6V20ZM12 17C12.55 17 13.0208 16.8042 13.4125 16.4125C13.8042 16.0208 14 15.55 14 15C14 14.45 13.8042 13.9792 13.4125 13.5875C13.0208 13.1958 12.55 13 12 13C11.45 13 10.9792 13.1958 10.5875 13.5875C10.1958 13.9792 10 14.45 10 15C10 15.55 10.1958 16.0208 10.5875 16.4125C10.9792 16.8042 11.45 17 12 17ZM9 8H15V6C15 5.16667 14.7083 4.45833 14.125 3.875C13.5417 3.29167 12.8333 3 12 3C11.1667 3 10.4583 3.29167 9.875 3.875C9.29167 4.45833 9 5.16667 9 6V8Z"
        fill="currentcolor" />
    </g>
  </symbol>

  <symbol id="join_logo" viewBox="0 0 101 122" fill="none">
    <path d="M71.6721 0H49.5143V25.4923H71.6721V0Z" fill="currentColor" />
    <path
      d="M49.5142 46.2251H71.6721V82.1779C71.7733 90.8292 69.3112 99.3153 64.5986 106.557C59.9455 113.594 50.963 121.966 34.3446 121.966C16.2434 121.966 5.69286 113.406 0 108.715L13.9765 91.4743C19.533 96.0112 24.885 99.7435 34.4299 99.7435C41.6567 99.7435 44.5372 96.7988 46.2247 94.2307C48.5186 90.6637 49.7052 86.4923 49.6335 82.2464L49.5142 46.2251Z"
      fill="currentColor" />
    <path d="M38.2137 30.1318H16.0559V52.3884H38.2137V30.1318Z" fill="currentColor" />
    <path
      d="M83.2793 111.522C83.2793 116.265 80.8761 118.815 77.5183 118.815C74.1605 118.815 71.9618 115.785 71.9618 111.762C71.9618 107.739 74.2287 104.554 77.7058 104.554C81.1829 104.554 83.2793 107.687 83.2793 111.522ZM74.5355 111.711C74.5355 114.57 75.6775 116.675 77.6376 116.675C79.5977 116.675 80.7056 114.45 80.7056 111.539C80.7056 108.988 79.6829 106.592 77.6376 106.592C75.5923 106.592 74.5355 108.903 74.5355 111.711Z"
      fill="currentColor" />
    <path d="M87.6768 104.76V118.593H85.2224V104.76H87.6768Z" fill="currentColor" />
    <path
      d="M90.3358 118.593V104.76H93.0629L95.9946 110.461C96.7493 111.952 97.4207 113.483 98.0058 115.049C97.8524 113.337 97.7843 111.368 97.7843 109.177V104.76H100.034V118.593H97.4945L94.5288 112.772C93.7436 111.243 93.0437 109.671 92.4323 108.064C92.4323 109.776 92.5516 111.711 92.5516 114.09V118.576L90.3358 118.593Z"
      fill="currentColor" />
  </symbol>
</svg>